<svg xmlns="http://www.w3.org/2000/svg" xmlns:xlink="http://www.w3.org/1999/xlink" width="430" height="430" viewBox="0 0 430 430">
  <defs>
    <linearGradient id="linear-gradient" x1="0.5" x2="0.5" y2="1" gradientUnits="objectBoundingBox">
      <stop offset="0" stop-color="#d5f4fb" stop-opacity="0.412"/>
      <stop offset="1" stop-color="#fff" stop-opacity="0"/>
    </linearGradient>
    <linearGradient id="linear-gradient-2" x1="0.5" y1="1" x2="0.5" gradientUnits="objectBoundingBox">
      <stop offset="0" stop-color="#4a95ff" stop-opacity="0.141"/>
      <stop offset="1" stop-color="#fff" stop-opacity="0"/>
    </linearGradient>
  </defs>
  <g id="Group_10136" data-name="Group 10136" transform="translate(-806 -856)">
    <g id="Group_5149" data-name="Group 5149">
      <circle id="Ellipse_1526" data-name="Ellipse 1526" cx="215" cy="215" r="215" transform="translate(806 856)" opacity="0.81" fill="url(#linear-gradient)"/>
      <circle id="Ellipse_1525" data-name="Ellipse 1525" cx="215" cy="215" r="215" transform="translate(806 856)" fill="url(#linear-gradient-2)"/>
      <g id="Group_5140" data-name="Group 5140" transform="translate(323.93 736.532)" opacity="0.32">
        <path id="Path_23914" data-name="Path 23914" d="M875.247,349.2A2.924,2.924,0,0,0,872,351.754v0a2.9,2.9,0,0,0,.607,2.15,2.829,2.829,0,0,0,.828.709c-.553,4.827-1.3,9.665-2.239,14.421C852.136,465.054,758.509,527.657,662.492,508.6a177.528,177.528,0,0,1,66.426-348.776,2.924,2.924,0,0,0,2.323,2.2h0a2.875,2.875,0,0,0,.521.047,2.921,2.921,0,1,0-2.34-4.66,180.425,180.425,0,0,0-32.358-2.946h-.081c-99.249.044-179.959,80.824-179.916,180.074.044,99.225,80.779,179.916,179.994,179.916h.08c1.966,0,4.006-.035,6.065-.1A179.977,179.977,0,0,0,875.9,354.839a2.917,2.917,0,0,0-.648-5.644Z" fill="#97e2f8"/>
        <path id="Path_23915" data-name="Path 23915" d="M675.937,185.751A150.19,150.19,0,0,0,548,352.877a2.914,2.914,0,0,0,1.6,5.347,2.875,2.875,0,0,0,.37-.024,2.918,2.918,0,0,0,.482-5.689A147.722,147.722,0,1,1,637.28,469.556a2.919,2.919,0,1,0-4.105,2.651h0a2.907,2.907,0,0,0,1.183.252,2.941,2.941,0,0,0,1.876-.682,152.1,152.1,0,0,0,60.9,12.885h0c1.688,0,3.387-.029,5.051-.086a150.471,150.471,0,0,0,16-1.407c82-11.649,139.232-87.839,127.581-169.837S757.939,174.1,675.937,185.751Z" fill="#97e2f8"/>
        <path id="Path_23916" data-name="Path 23916" d="M579.179,352.119a2.914,2.914,0,0,0-.239,5.677,120.16,120.16,0,0,0,118.123,97.073h.052c1.348,0,2.714-.024,4.06-.073a120.406,120.406,0,1,0-83.416-210.928,2.914,2.914,0,1,0,.844,4.873h0a2.923,2.923,0,0,0,.834-3.052,117.932,117.932,0,1,1-38.064,111.7,2.924,2.924,0,0,0,1.214-2.937h0A2.922,2.922,0,0,0,579.179,352.119Z" fill="#97e2f8"/>
        <path id="Path_23917" data-name="Path 23917" d="M710.524,247.351a2.92,2.92,0,0,0,2.3,2.14,3.018,3.018,0,0,0,.516.046,2.921,2.921,0,0,0,2.394-4.592,2.9,2.9,0,0,0-1.883-1.205h0a2.882,2.882,0,0,0-2.9,1.205,90.832,90.832,0,0,0-13.9-1.1h-.047a90.613,90.613,0,0,0,.045,181.226h.045c1.017,0,2.039-.02,3.061-.052a90.568,90.568,0,0,0,86.608-77.893,2.913,2.913,0,0,0,1.99-2.43,2.921,2.921,0,1,0-4.424,2.138c-.181,1.27-.38,2.537-.613,3.79a88.15,88.15,0,1,1-73.2-103.277Z" fill="#97e2f8"/>
      </g>
    </g>
    <g id="Path_23926" data-name="Path 23926" transform="matrix(0.914, -0.407, 0.407, 0.914, 969.959, 1108.028)" fill="none">
      <path d="M6.5,6.294a4,4,0,0,1,6.993,0l3.2,5.763A4,4,0,0,1,13.2,18H6.8a4,4,0,0,1-3.5-5.943Z" stroke="none"/>
      <path d="M 10 6.236507415771484 C 9.646169662475586 6.236507415771484 8.767499923706055 6.336748123168945 8.251680374145508 7.265227317810059 L 5.049750328063965 13.02870750427246 C 4.548419952392578 13.93108749389648 4.899920463562012 14.71786785125732 5.074319839477539 15.01425743103027 C 5.248709678649902 15.31063747406006 5.765780448913574 15.99999809265137 6.798060417175293 15.99999809265137 L 13.20194053649902 15.99999809265137 C 14.23422050476074 15.99999809265137 14.75128936767578 15.31063747406006 14.92568016052246 15.01425743103027 C 15.1000804901123 14.71786785125732 15.45158004760742 13.93108749389648 14.95026016235352 13.02871799468994 L 11.74831008911133 7.265217781066895 C 11.23250007629395 6.336748123168945 10.35383033752441 6.236507415771484 10 6.236507415771484 M 10 4.236507415771484 C 11.3673095703125 4.236507415771484 12.73462009429932 4.922317504882813 13.49662971496582 6.293937683105469 L 16.69857025146484 12.05742740631104 C 18.17975044250488 14.723557472229 16.25188064575195 17.99999809265137 13.20194053649902 17.99999809265137 L 6.798060417175293 17.99999809265137 C 3.748119354248047 17.99999809265137 1.820249557495117 14.723557472229 3.301429748535156 12.05742740631104 L 6.50337028503418 6.293937683105469 C 7.265379905700684 4.922317504882813 8.6326904296875 4.236507415771484 10 4.236507415771484 Z" stroke="none" fill="#a6e5f7"/>
    </g>
    <g id="Path_23927" data-name="Path 23927" transform="matrix(0.616, 0.788, -0.788, 0.616, 1073.436, 1239.975)" fill="none">
      <path d="M5.867,5.941a3.314,3.314,0,0,1,5.795,0l2.653,4.776a3.314,3.314,0,0,1-2.9,4.924H6.111a3.314,3.314,0,0,1-2.9-4.924Z" stroke="none"/>
      <path d="M 8.764595031738281 6.236503601074219 C 8.532054901123047 6.236503601074219 7.954605102539063 6.302384376525879 7.615605354309082 6.91257381439209 L 4.962474822998047 11.68820381164551 C 4.633014678955078 12.2812442779541 4.864014625549316 12.79831409454346 4.978625297546387 12.99309349060059 C 5.093235015869141 13.18787384033203 5.43305492401123 13.64092445373535 6.111465454101563 13.64092445373535 L 11.417724609375 13.64092445373535 C 12.09613513946533 13.64092445373535 12.43595504760742 13.18787384033203 12.55056571960449 12.99309349060059 C 12.66517448425293 12.79831409454346 12.89617538452148 12.2812442779541 12.56671524047852 11.68820381164551 L 9.913585662841797 6.91257381439209 C 9.5745849609375 6.302384376525879 8.997135162353516 6.236503601074219 8.764595031738281 6.236503601074219 M 8.764595031738281 4.236503601074219 C 9.897544860839844 4.236503601074219 11.03049468994141 4.804763793945313 11.66189479827881 5.9412841796875 L 14.31502532958984 10.71691417694092 C 15.54233551025391 12.92606353759766 13.94489479064941 15.64092445373535 11.417724609375 15.64092445373535 L 6.111465454101563 15.64092445373535 C 3.584295272827148 15.64092445373535 1.986855506896973 12.92606353759766 3.214164733886719 10.71691417694092 L 5.867295265197754 5.9412841796875 C 6.498695373535156 4.804763793945313 7.631645202636719 4.236503601074219 8.764595031738281 4.236503601074219 Z" stroke="none" fill="#a6e5f7"/>
    </g>
    <g id="Path_23928" data-name="Path 23928" transform="translate(864.938 875.891)" fill="none">
      <path d="M5.867,5.941a3.314,3.314,0,0,1,5.795,0l2.653,4.776a3.314,3.314,0,0,1-2.9,4.924H6.111a3.314,3.314,0,0,1-2.9-4.924Z" stroke="none"/>
      <path d="M 8.764595031738281 6.236503601074219 C 8.532054901123047 6.236503601074219 7.954605102539063 6.302384376525879 7.615605354309082 6.91257381439209 L 4.962474822998047 11.68820381164551 C 4.633014678955078 12.2812442779541 4.864014625549316 12.79831409454346 4.978625297546387 12.99309349060059 C 5.093235015869141 13.18787384033203 5.43305492401123 13.64092445373535 6.111465454101563 13.64092445373535 L 11.417724609375 13.64092445373535 C 12.09613513946533 13.64092445373535 12.43595504760742 13.18787384033203 12.55056571960449 12.99309349060059 C 12.66517448425293 12.79831409454346 12.89617538452148 12.2812442779541 12.56671524047852 11.68820381164551 L 9.913585662841797 6.91257381439209 C 9.5745849609375 6.302384376525879 8.997135162353516 6.236503601074219 8.764595031738281 6.236503601074219 M 8.764595031738281 4.236503601074219 C 9.897544860839844 4.236503601074219 11.03049468994141 4.804763793945313 11.66189479827881 5.9412841796875 L 14.31502532958984 10.71691417694092 C 15.54233551025391 12.92606353759766 13.94489479064941 15.64092445373535 11.417724609375 15.64092445373535 L 6.111465454101563 15.64092445373535 C 3.584295272827148 15.64092445373535 1.986855506896973 12.92606353759766 3.214164733886719 10.71691417694092 L 5.867295265197754 5.9412841796875 C 6.498695373535156 4.804763793945313 7.631645202636719 4.236503601074219 8.764595031738281 4.236503601074219 Z" stroke="none" fill="#a6e5f7"/>
    </g>
    <g id="Ellipse_1527" data-name="Ellipse 1527" transform="translate(824 1142)" fill="none" stroke="#94e5e3" stroke-width="2">
      <circle cx="5" cy="5" r="5" stroke="none"/>
      <circle cx="5" cy="5" r="4" fill="none"/>
    </g>
    <g id="Ellipse_1528" data-name="Ellipse 1528" transform="translate(1039 856)" fill="none" stroke="#94e5e3" stroke-width="3">
      <circle cx="7.5" cy="7.5" r="7.5" stroke="none"/>
      <circle cx="7.5" cy="7.5" r="6" fill="none"/>
    </g>
    <g id="Ellipse_1529" data-name="Ellipse 1529" transform="translate(1206 1043)" fill="none" stroke="#94e5e3" stroke-width="3" opacity="0.5">
      <circle cx="5.5" cy="5.5" r="5.5" stroke="none"/>
      <circle cx="5.5" cy="5.5" r="4" fill="none"/>
    </g>
    <g id="Group_5155" data-name="Group 5155">
      <path id="Path_23929" data-name="Path 23929" d="M926.311,1129.819s-4.157,5.262-9.261,5.262-6.419-5.262-11.155-5.262-7.788,5.262-7.788,5.262" fill="none" stroke="#a6e5f7" stroke-linecap="round" stroke-width="1"/>
      <path id="Path_23930" data-name="Path 23930" d="M926.311,1129.819s-4.157,5.262-9.261,5.262-6.419-5.262-11.155-5.262-7.788,5.262-7.788,5.262" transform="translate(0 8)" fill="none" stroke="#a6e5f7" stroke-linecap="round" stroke-width="1"/>
    </g>
    <g id="Group_5156" data-name="Group 5156" transform="translate(1146.106 1039.819)">
      <path id="Path_23929-2" data-name="Path 23929" d="M926.311,1135.081s-4.157-5.262-9.261-5.262-6.419,5.262-11.155,5.262-7.788-5.262-7.788-5.262" transform="translate(-898.106 -1121.819)" fill="none" stroke="#a6e5f7" stroke-linecap="round" stroke-width="1"/>
      <path id="Path_23930-2" data-name="Path 23930" d="M926.311,1135.081s-4.157-5.262-9.261-5.262-6.419,5.262-11.155,5.262-7.788-5.262-7.788-5.262" transform="translate(-898.106 -1129.819)" fill="none" stroke="#a6e5f7" stroke-linecap="round" stroke-width="1"/>
    </g>
  </g>
</svg>
