<svg id="stars" xmlns="http://www.w3.org/2000/svg" xmlns:xlink="http://www.w3.org/1999/xlink" width="64.072" height="9.884" viewBox="0 0 64.072 9.884">
  <defs>
    <clipPath id="clip-path">
      <rect width="5.294" height="9.884" fill="none"/>
    </clipPath>
  </defs>
  <path id="star" d="M5.667,1.357,6.833,3.719a.556.556,0,0,0,.419.3L9.859,4.4a.557.557,0,0,1,.309.949L8.281,7.19a.557.557,0,0,0-.16.493l.445,2.6a.557.557,0,0,1-.808.587L5.428,9.64a.557.557,0,0,0-.518,0L2.578,10.866a.557.557,0,0,1-.808-.587l.445-2.6a.557.557,0,0,0-.16-.493L.169,5.352A.556.556,0,0,1,.478,4.4l2.607-.379a.556.556,0,0,0,.419-.3L4.669,1.357A.556.556,0,0,1,5.667,1.357Z" transform="translate(53.736 -1.047)" fill="#ced3db"/>
  <path id="star-2" data-name="star" d="M5.667,1.357,6.833,3.719a.556.556,0,0,0,.419.3L9.859,4.4a.557.557,0,0,1,.309.949L8.281,7.19a.557.557,0,0,0-.16.493l.445,2.6a.557.557,0,0,1-.808.587L5.428,9.64a.557.557,0,0,0-.518,0L2.578,10.866a.557.557,0,0,1-.808-.587l.445-2.6a.557.557,0,0,0-.16-.493L.169,5.352A.556.556,0,0,1,.478,4.4l2.607-.379a.556.556,0,0,0,.419-.3L4.669,1.357A.556.556,0,0,1,5.667,1.357Z" transform="translate(-0.001 -1.047)" fill="#ffba02"/>
  <path id="star-3" data-name="star" d="M5.667,1.357,6.833,3.719a.556.556,0,0,0,.419.3L9.859,4.4a.557.557,0,0,1,.309.949L8.281,7.19a.557.557,0,0,0-.16.493l.445,2.6a.557.557,0,0,1-.808.587L5.428,9.64a.557.557,0,0,0-.518,0L2.578,10.866a.557.557,0,0,1-.808-.587l.445-2.6a.557.557,0,0,0-.16-.493L.169,5.352A.556.556,0,0,1,.478,4.4l2.607-.379a.556.556,0,0,0,.419-.3L4.669,1.357A.556.556,0,0,1,5.667,1.357Z" transform="translate(13.433 -1.047)" fill="#ffba02"/>
  <path id="star-4" data-name="star" d="M5.667,1.357,6.833,3.719a.556.556,0,0,0,.419.3L9.859,4.4a.557.557,0,0,1,.309.949L8.281,7.19a.557.557,0,0,0-.16.493l.445,2.6a.557.557,0,0,1-.808.587L5.428,9.64a.557.557,0,0,0-.518,0L2.578,10.866a.557.557,0,0,1-.808-.587l.445-2.6a.557.557,0,0,0-.16-.493L.169,5.352A.556.556,0,0,1,.478,4.4l2.607-.379a.556.556,0,0,0,.419-.3L4.669,1.357A.556.556,0,0,1,5.667,1.357Z" transform="translate(26.867 -1.047)" fill="#ffba02"/>
  <path id="star-5" data-name="star" d="M5.667,1.357,6.833,3.719a.556.556,0,0,0,.419.3L9.859,4.4a.557.557,0,0,1,.309.949L8.281,7.19a.557.557,0,0,0-.16.493l.445,2.6a.557.557,0,0,1-.808.587L5.428,9.64a.557.557,0,0,0-.518,0L2.578,10.866a.557.557,0,0,1-.808-.587l.445-2.6a.557.557,0,0,0-.16-.493L.169,5.352A.556.556,0,0,1,.478,4.4l2.607-.379a.556.556,0,0,0,.419-.3L4.669,1.357A.556.556,0,0,1,5.667,1.357Z" transform="translate(40.302 -1.047)" fill="#ffba02"/>
  <g id="Repeat_Grid_5" data-name="Repeat Grid 5" transform="translate(53.634 0)" clip-path="url(#clip-path)">
    <g transform="translate(-1349.361 -373.458)">
      <path id="star-6" data-name="star" d="M5.617,1.365,6.772,3.788a.553.553,0,0,0,.415.312l2.584.389a.576.576,0,0,1,.306.974L8.208,7.348a.583.583,0,0,0-.159.505l.441,2.663a.556.556,0,0,1-.8.6L5.379,9.861a.536.536,0,0,0-.513,0L2.555,11.119a.556.556,0,0,1-.8-.6L2.2,7.854a.583.583,0,0,0-.159-.505L.168,5.462a.576.576,0,0,1,.306-.974L3.057,4.1a.553.553,0,0,0,.415-.312L4.628,1.365A.543.543,0,0,1,5.617,1.365Z" transform="translate(1349.501 372.333)" fill="#ffba02"/>
    </g>
  </g>
</svg>
