<svg xmlns="http://www.w3.org/2000/svg" xmlns:xlink="http://www.w3.org/1999/xlink" width="34" height="34" viewBox="0 0 34 34">
  <defs>
    <clipPath id="clip-path">
      <rect id="Rectangle_4751" data-name="Rectangle 4751" width="34" height="34" rx="10" transform="translate(-0.087)" fill="#fedb7c"/>
    </clipPath>
    <clipPath id="clip-path-2">
      <rect id="Rectangle_4752" data-name="Rectangle 4752" width="34" height="34" rx="8" transform="translate(-0.087)" fill="#fedb7c"/>
    </clipPath>
  </defs>
  <g id="Group_5132" data-name="Group 5132" transform="translate(-748.145 -1248)">
    <rect id="Rectangle_4750" data-name="Rectangle 4750" width="34" height="34" rx="10" transform="translate(748.145 1248)" fill="#4ecdc4"/>
    <g id="Mask_Group_88" data-name="Mask Group 88" transform="translate(748.231 1248)" clip-path="url(#clip-path)">
      <g id="Iconly_Bulk_Tick_Square" data-name="Iconly/Bulk/Tick Square" transform="translate(4.913 5)">
        <g id="Tick_Square" data-name="Tick Square" transform="translate(2 2)">
          <path id="Fill_1" data-name="Fill 1" d="M14.34,0H5.67C2.28,0,0,2.38,0,5.92v8.17C0,17.62,2.28,20,5.67,20h8.67C17.73,20,20,17.62,20,14.09V5.92C20,2.38,17.73,0,14.34,0" fill="#fff" opacity="0.4"/>
          <path id="Fill_4" data-name="Fill 4" d="M3.249,6.5a.872.872,0,0,1-.619-.256L.257,3.868A.875.875,0,0,1,1.493,2.629L3.249,4.385,7.377.257A.875.875,0,0,1,8.613,1.495L3.868,6.24a.872.872,0,0,1-.619.256" transform="translate(5.565 6.752)" fill="#fff"/>
        </g>
      </g>
    </g>
  </g>
</svg>
